<svg width="775" height="128" viewBox="0 0 775 128" fill="none" xmlns="http://www.w3.org/2000/svg">
<path d="M93.3334 40.3333C103.09 40.3333 111 32.4237 111 22.6667C111 12.9096 103.09 5 93.3334 5C83.5763 5 75.6667 12.9096 75.6667 22.6667C75.6667 32.4237 83.5763 40.3333 93.3334 40.3333Z" stroke="black" stroke-width="10" stroke-linecap="round" stroke-linejoin="round"/>
<path d="M22.6667 81.5556C32.4237 81.5556 40.3333 73.6459 40.3333 63.8889C40.3333 54.1319 32.4237 46.2222 22.6667 46.2222C12.9096 46.2222 5 54.1319 5 63.8889C5 73.6459 12.9096 81.5556 22.6667 81.5556Z" stroke="black" stroke-width="10" stroke-linecap="round" stroke-linejoin="round"/>
<path d="M93.3334 122.778C103.09 122.778 111 114.868 111 105.111C111 95.3541 103.09 87.4445 93.3334 87.4445C83.5763 87.4445 75.6667 95.3541 75.6667 105.111C75.6667 114.868 83.5763 122.778 93.3334 122.778Z" stroke="black" stroke-width="10" stroke-linecap="round" stroke-linejoin="round"/>
<path d="M37.919 72.7811L78.1401 96.2189" stroke="black" stroke-width="10" stroke-linecap="round" stroke-linejoin="round"/>
<path d="M78.0812 31.5588L37.919 54.9966" stroke="black" stroke-width="10" stroke-linecap="round" stroke-linejoin="round"/>
<path d="M160.344 19.96L188.12 87.672L216.408 19.96H226.392V107H218.072V67.064L218.968 31.992L191.96 96.76H183.64L157.144 31.736L158.04 67.064V107H149.72V19.96H160.344ZM297.061 103.288C293.562 105.08 289.893 106.36 286.053 107.128C282.298 107.896 278.885 108.28 275.813 108.28C267.109 108.28 260.624 105.763 256.357 100.728C252.176 95.6933 250.085 88.6533 250.085 79.608V71.928C250.085 63.3093 252.218 56.3973 256.485 51.192C260.752 45.9867 266.896 43.384 274.917 43.384C281.232 43.384 286.522 45.2613 290.789 49.016C295.141 52.7707 297.317 58.4453 297.317 66.04C297.317 69.5387 296.805 73.5493 295.781 78.072H257.893V79.608C257.893 86.6053 259.301 91.9813 262.117 95.736C264.933 99.4053 269.498 101.24 275.813 101.24C278.373 101.24 281.317 100.899 284.645 100.216C288.058 99.5333 291.344 98.4667 294.501 97.016L297.061 103.288ZM274.917 50.424C269.2 50.424 264.933 52.3013 262.117 56.056C259.301 59.7253 257.893 64.8027 257.893 71.288H289.253C289.424 70.1787 289.552 69.1547 289.637 68.216C289.722 67.192 289.765 66.2533 289.765 65.4C289.765 60.1093 288.272 56.312 285.285 54.008C282.384 51.6187 278.928 50.424 274.917 50.424ZM360.186 103.288C356.687 105.08 353.018 106.36 349.178 107.128C345.423 107.896 342.01 108.28 338.938 108.28C330.234 108.28 323.749 105.763 319.482 100.728C315.301 95.6933 313.21 88.6533 313.21 79.608V71.928C313.21 63.3093 315.343 56.3973 319.61 51.192C323.877 45.9867 330.021 43.384 338.042 43.384C344.357 43.384 349.647 45.2613 353.914 49.016C358.266 52.7707 360.442 58.4453 360.442 66.04C360.442 69.5387 359.93 73.5493 358.906 78.072H321.018V79.608C321.018 86.6053 322.426 91.9813 325.242 95.736C328.058 99.4053 332.623 101.24 338.938 101.24C341.498 101.24 344.442 100.899 347.77 100.216C351.183 99.5333 354.469 98.4667 357.626 97.016L360.186 103.288ZM338.042 50.424C332.325 50.424 328.058 52.3013 325.242 56.056C322.426 59.7253 321.018 64.8027 321.018 71.288H352.378C352.549 70.1787 352.677 69.1547 352.762 68.216C352.847 67.192 352.89 66.2533 352.89 65.4C352.89 60.1093 351.397 56.312 348.41 54.008C345.509 51.6187 342.053 50.424 338.042 50.424ZM411.407 104.568C406.714 107.043 401.978 108.28 397.199 108.28C392.932 108.28 389.604 107.427 387.215 105.72C384.826 103.928 383.162 101.581 382.223 98.68C381.284 95.7787 380.815 92.7067 380.815 89.464V51.448H369.423V44.664H380.815V26.488H388.495V44.664H409.615V51.448H388.495V88.824C388.495 93.6027 389.22 96.9307 390.671 98.808C392.207 100.6 394.682 101.496 398.095 101.496C401.338 101.496 404.879 100.472 408.719 98.424L411.407 104.568Z" fill="black"/>
<path d="M459.976 94.072C469.875 94.072 474.824 90.4027 474.824 83.064C474.824 80.0773 474.056 77.7307 472.52 76.024C471.069 74.3173 468.339 72.824 464.328 71.544L453.832 68.088C441.288 63.992 435.016 55.7573 435.016 43.384C435.016 36.216 437.235 30.328 441.672 25.72C446.195 21.0267 453.235 18.68 462.792 18.68C466.803 18.68 470.771 19.1493 474.696 20.088C478.621 20.9413 482.803 22.3493 487.24 24.312L482.504 37.496C478.408 35.8747 474.909 34.7227 472.008 34.04C469.192 33.272 466.291 32.888 463.304 32.888C459.379 32.888 456.264 33.6133 453.96 35.064C451.741 36.4293 450.632 38.9467 450.632 42.616C450.632 45.3467 451.4 47.608 452.936 49.4C454.557 51.1067 457.203 52.5573 460.872 53.752L471.368 57.208C477.683 59.3413 482.419 62.456 485.576 66.552C488.819 70.5627 490.44 75.896 490.44 82.552C490.44 90.232 488.008 96.4613 483.144 101.24C478.28 105.933 470.643 108.28 460.232 108.28C456.136 108.28 451.869 107.811 447.432 106.872C443.08 105.848 438.301 104.141 433.096 101.752L437.832 88.568C442.611 90.616 446.664 92.0667 449.992 92.92C453.405 93.688 456.733 94.072 459.976 94.072ZM507.282 107V19.96H535.954C545.085 19.96 551.911 22.264 556.434 26.872C561.042 31.48 563.346 37.624 563.346 45.304V52.088C563.346 59.768 561.042 65.9547 556.434 70.648C551.911 75.256 545.085 77.56 535.954 77.56H522.642V107H507.282ZM535.954 34.68H522.642V62.84H535.954C539.709 62.84 542.567 61.9013 544.53 60.024C546.578 58.1467 547.602 55.5013 547.602 52.088V45.304C547.602 41.976 546.578 39.3733 544.53 37.496C542.567 35.6187 539.709 34.68 535.954 34.68ZM621.368 107L615.992 89.976H586.168L580.792 107H565.56L594.616 19.96H608.184L637.368 107H621.368ZM594.488 63.352L590.52 75.896H611.512L607.544 63.352L601.144 41.336L594.488 63.352ZM661.183 72.568C661.183 78.7973 662.548 83.9173 665.279 87.928C668.01 91.8533 672.49 93.816 678.719 93.816C681.279 93.816 683.924 93.4747 686.655 92.792C689.471 92.1093 692.927 90.9573 697.023 89.336L701.759 102.648C697.151 104.696 692.884 106.147 688.959 107C685.119 107.853 681.407 108.28 677.823 108.28C670.655 108.28 664.639 106.744 659.775 103.672C654.996 100.6 651.412 96.376 649.023 91C646.634 85.624 645.439 79.48 645.439 72.568V54.264C645.439 47.352 646.634 41.208 649.023 35.832C651.412 30.456 654.996 26.2747 659.775 23.288C664.639 20.216 670.655 18.68 677.823 18.68C681.322 18.68 684.948 19.1067 688.703 19.96C692.458 20.728 696.554 22.0933 700.991 24.056L696.255 37.624C692.33 36.0027 689.044 34.8507 686.399 34.168C683.754 33.4853 681.194 33.144 678.719 33.144C672.49 33.144 668.01 35.1067 665.279 39.032C662.548 42.9573 661.183 48.0347 661.183 54.264V72.568ZM768.214 92.28V107H717.782V19.96H766.934V34.68H733.142V55.544H763.094V70.264H733.142V92.28H768.214Z" fill="black"/>
</svg>
