<svg width="116" height="128" viewBox="0 0 116 128" fill="none" xmlns="http://www.w3.org/2000/svg">
<path d="M93.3334 40.3333C103.09 40.3333 111 32.4237 111 22.6667C111 12.9096 103.09 5 93.3334 5C83.5763 5 75.6667 12.9096 75.6667 22.6667C75.6667 32.4237 83.5763 40.3333 93.3334 40.3333Z" stroke="#D84040" stroke-width="10" stroke-linecap="round" stroke-linejoin="round"/>
<path d="M22.6667 81.5556C32.4237 81.5556 40.3333 73.6459 40.3333 63.8889C40.3333 54.1319 32.4237 46.2222 22.6667 46.2222C12.9096 46.2222 5 54.1319 5 63.8889C5 73.6459 12.9096 81.5556 22.6667 81.5556Z" stroke="#D84040" stroke-width="10" stroke-linecap="round" stroke-linejoin="round"/>
<path d="M93.3334 122.778C103.09 122.778 111 114.868 111 105.111C111 95.3541 103.09 87.4445 93.3334 87.4445C83.5763 87.4445 75.6667 95.3541 75.6667 105.111C75.6667 114.868 83.5763 122.778 93.3334 122.778Z" stroke="#D84040" stroke-width="10" stroke-linecap="round" stroke-linejoin="round"/>
<path d="M37.919 72.7811L78.1401 96.2189" stroke="#D84040" stroke-width="10" stroke-linecap="round" stroke-linejoin="round"/>
<path d="M78.0812 31.5588L37.919 54.9966" stroke="#D84040" stroke-width="10" stroke-linecap="round" stroke-linejoin="round"/>
</svg>
